<svg xmlns="http://www.w3.org/2000/svg" width="49.265" height="23.047" viewBox="0 0 49.265 23.047">
  <g id="Group_61" data-name="Group 61" transform="translate(-331.735 -12.258)">
    <g id="Group_59" data-name="Group 59">
      <path id="mountains" d="M34.306,28.126l.009,0L22.347,7.391l0,0a1.617,1.617,0,0,0-2.935.042L11.442,21.231l-1.95-3.378h0a.852.852,0,0,0-1.547.021L2.258,27.723H2.232v.044l-.55.953a.491.491,0,0,0-.1.3.5.5,0,0,0,.5.5.506.506,0,0,0,.156-.027v.033h31.32v-.018a.933.933,0,0,0,.754-1.379Z" transform="translate(330.156 5.781)" fill="#54605a"/>
    </g>
    <path id="mountains-2" data-name="mountains" d="M34.306,28.126l.009,0L22.347,7.391l0,0a1.617,1.617,0,0,0-2.935.042L11.442,21.231l-1.95-3.378h0a.852.852,0,0,0-1.547.021L2.258,27.723H2.232v.044l-.55.953a.491.491,0,0,0-.1.3.5.5,0,0,0,.5.5.506.506,0,0,0,.156-.027v.033h31.32v-.018a.933.933,0,0,0,.754-1.379Z" transform="translate(346.578 5.781)" fill="#8f9b95"/>
  </g>
</svg>
